<?xml version="1.0" encoding="UTF-8"?>
<!DOCTYPE svg PUBLIC "-//W3C//DTD SVG 1.1//EN" "http://www.w3.org/Graphics/SVG/1.1/DTD/svg11.dtd">
<svg xmlns="http://www.w3.org/2000/svg" version="1.1" width="316px" height="313px" style="shape-rendering:geometricPrecision; text-rendering:geometricPrecision; image-rendering:optimizeQuality; fill-rule:evenodd; clip-rule:evenodd" xmlns:xlink="http://www.w3.org/1999/xlink">
<g><path style="opacity:0.989" fill="#000000" d="M 136.5,-0.5 C 149.5,-0.5 162.5,-0.5 175.5,-0.5C 232.746,8.87155 274.246,39.5382 300,91.5C 323.135,148.015 317.469,201.348 283,251.5C 258.583,282.793 227.083,303.126 188.5,312.5C 167.167,312.5 145.833,312.5 124.5,312.5C 56.7666,294.767 15.1,251.767 -0.5,183.5C -0.5,166.167 -0.5,148.833 -0.5,131.5C 12.8337,67.7073 50.5003,25.5407 112.5,5C 120.566,2.81404 128.566,0.980705 136.5,-0.5 Z"/></g>
<g><path style="opacity:1" fill="#12191f" d="M 99.5,93.5 C 123.663,92.3368 147.997,92.1701 172.5,93C 173.416,93.2784 174.082,93.7784 174.5,94.5C 149.526,93.5379 124.526,93.2046 99.5,93.5 Z"/></g>
<g><path style="opacity:1" fill="#d5d5d5" d="M 99.5,93.5 C 124.526,93.2046 149.526,93.5379 174.5,94.5C 191.652,97.9782 203.319,107.978 209.5,124.5C 209.259,126.898 209.926,128.898 211.5,130.5C 215.424,151.825 208.424,168.659 190.5,181C 178.853,185.49 167.853,190.99 157.5,197.5C 156.506,188.348 156.173,179.015 156.5,169.5C 182.216,170.95 194.382,158.95 193,133.5C 189.32,122.488 181.82,115.654 170.5,113C 152.833,112.667 135.167,112.333 117.5,112C 111.297,105.965 105.297,99.7981 99.5,93.5 Z"/></g>
<g><path style="opacity:1" fill="#868686" d="M 209.5,124.5 C 211.074,126.102 211.741,128.102 211.5,130.5C 209.926,128.898 209.259,126.898 209.5,124.5 Z"/></g>
<g><path style="opacity:1" fill="#10171f" d="M 117.5,131.5 C 117.167,160.841 117.5,190.174 118.5,219.5C 119.417,218.873 120.417,218.539 121.5,218.5C 120.448,220.256 118.781,220.923 116.5,220.5C 116.169,190.662 116.502,160.995 117.5,131.5 Z"/></g>
<g><path style="opacity:1" fill="#3c9ed8" d="M 117.5,131.5 C 134.837,131.333 152.17,131.5 169.5,132C 170.373,133.045 171.373,133.878 172.5,134.5C 172.5,135.5 172.5,136.5 172.5,137.5C 170.99,136.164 169.323,134.997 167.5,134C 151.503,133.5 135.503,133.333 119.5,133.5C 119.5,161.167 119.5,188.833 119.5,216.5C 120.833,216.5 122.167,216.5 123.5,216.5C 123.167,217.5 122.5,218.167 121.5,218.5C 120.417,218.539 119.417,218.873 118.5,219.5C 117.5,190.174 117.167,160.841 117.5,131.5 Z"/></g>
<g><path style="opacity:1" fill="#37b5fe" d="M 172.5,137.5 C 173.913,141.019 173.579,144.353 171.5,147.5C 171.5,148.167 171.167,148.5 170.5,148.5C 159.017,149.079 147.684,149.746 136.5,150.5C 135.883,150.611 135.383,150.944 135,151.5C 134.667,170.5 134.333,189.5 134,208.5C 133.487,209.527 132.987,210.527 132.5,211.5C 129.853,211.929 127.853,213.262 126.5,215.5C 125.391,215.557 124.391,215.89 123.5,216.5C 122.167,216.5 120.833,216.5 119.5,216.5C 119.5,188.833 119.5,161.167 119.5,133.5C 135.503,133.333 151.503,133.5 167.5,134C 169.323,134.997 170.99,136.164 172.5,137.5 Z"/></g>
<g><path style="opacity:1" fill="#33729a" d="M 172.5,134.5 C 176.602,139.118 176.269,143.451 171.5,147.5C 173.579,144.353 173.913,141.019 172.5,137.5C 172.5,136.5 172.5,135.5 172.5,134.5 Z"/></g>
<g><path style="opacity:1" fill="#4692c1" d="M 170.5,148.5 C 169.737,149.268 168.737,149.768 167.5,150C 157.506,150.5 147.506,150.666 137.5,150.5C 137.167,150.5 136.833,150.5 136.5,150.5C 147.684,149.746 159.017,149.079 170.5,148.5 Z"/></g>
<g><path style="opacity:1" fill="#194363" d="M 136.5,150.5 C 136.833,150.5 137.167,150.5 137.5,150.5C 138.155,170.861 137.488,190.861 135.5,210.5C 136.487,190.576 136.821,170.576 136.5,150.5 Z"/></g>
<g><path style="opacity:1" fill="#43abe9" d="M 136.5,150.5 C 136.821,170.576 136.487,190.576 135.5,210.5C 134.833,210.833 134.167,211.167 133.5,211.5C 133.167,211.5 132.833,211.5 132.5,211.5C 132.987,210.527 133.487,209.527 134,208.5C 134.333,189.5 134.667,170.5 135,151.5C 135.383,150.944 135.883,150.611 136.5,150.5 Z"/></g>
<g><path style="opacity:1" fill="#868686" d="M 156.5,169.5 C 156.173,179.015 156.506,188.348 157.5,197.5C 157.44,198.043 157.107,198.376 156.5,198.5C 155.177,188.675 155.177,179.008 156.5,169.5 Z"/></g>
<g><path style="opacity:1" fill="#2c658b" d="M 132.5,211.5 C 132.833,211.5 133.167,211.5 133.5,211.5C 131.434,213.199 129.1,214.532 126.5,215.5C 127.853,213.262 129.853,211.929 132.5,211.5 Z"/></g>
</svg>
